<?xml version="1.0" encoding="utf-8"?>
<!-- Generator: Adobe Illustrator 25.0.0, SVG Export Plug-In . SVG Version: 6.00 Build 0)  -->
<svg version="1.1" id="katman_1" xmlns="http://www.w3.org/2000/svg" xmlns:xlink="http://www.w3.org/1999/xlink" x="0px" y="0px"
	 width="700px" height="700px" viewBox="0 0 700 700" style="enable-background:new 0 0 700 700;" xml:space="preserve">
<style type="text/css">
	.st0{fill:#314360;}
	.st1{fill:#FE6798;}
	.st2{fill:#69BBDE;}
	.st3{fill:#FFFFFF;}
	.st4{fill:#567CAA;}
	.st5{fill:#003B71;}
</style>
<g>
	<path d="M524.9,177.6c0,0-18.4,60.4-27,109.7c0,0-1.8-0.9-2-1.6s-2.8-49.5-40-82.7c0,0-15.5-21-34.3-21.6c0,0-23.4-13.1-71.6-10.8
		c0,0,7.3-4.8,14.2-6.5c0.8-0.2,1.5-0.6,2-1.2c0.9-1.1,1.1-2.7-4.6-2.9c-8.9-0.4-20.6,3.2-20.6,3.2s9.5-17-3.9-15.9
		c0,0-5.5,11.6-12.5,18.7c0,0,0.9-11.4-3.1-7.1c-4,4.3-12.7,23.8-22,26.8c-9.3,3-30.6,16-30.6,16s-35.2,26.3-43.2,69.8
		c0,0-5.3,32.8-4,42.7c0,0-1.5-0.8-2-1.3s-35.5-78.3-35.5-78.3s-10-29.5-8.3-41.1l0.6-21.4c0-0.4,0-0.8,0.1-1.1
		c0.9-6,8.2-60.1-18.6-58.2c-2,0.1-3.9,1.2-5.7,2.2c-6.9,4-31.8,19.7-40.2,42l12.5,15.3c0,0,10.9,10.4-5.7,12.5c0,0-15,0-18.8-3
		c0,0-31.7,60.2,10.9,110.8s94.4,61.2,117.3,59.5c0,0,8,20.3,45.2,24.2l17.4,3c0,0,3,0.6-0.4,2.7s-25.2,22-7.4,51
		c0,0,2.7,3-3.1,11.9c-5.8,9-18.2,29-24.4,44.1c0,0-25.4-3-39.4,19.4c0,0-12.2-3.1-16.6,5.6c0,0-8.3-0.5-12.3,1.4
		c0,0-2.8-5.2-12.4-0.6c-9.7,4.6-9.4,11.3-9.4,11.3s-1.9,5.8-0.4,8.1c0,0-10.8,3.1-12.2,11.6c-0.4,2.3,0,4.7,1,6.9
		c1.6,3.2,5.2,8.8,12.5,10c0,0,12.9,44.8,43.2,38.4c0,0,7.9,2.1,13.9-0.8c0,0,4.7-1.2,3.8,1.5c-0.8,2.5-4.7,12.1,2.6,11.4
		c1.2-0.1,2.4-0.5,3.5-1.1l9-4.8c0,0-1.3,11.4,6.2,8.8c7.5-2.6,14.1-8,14.1-8s5.9,7.2,26.2-2.2c3.7-1.7,7.9-2.4,12-1.9
		c2.4,0.3,5,1,7.1,2.6c2.2,1.6,4.8,2.8,7.5,3.1c2.3,0.3,4.6,0.1,5.2-1.8l1.9,0.2l14.5,11.1c0,0,4.4-1.6,3.1-8.6
		c-0.6-3.2-2.2-6.2-4.6-8.5c-1.7-1.7-3.9-3.4-6-3.6c0,0-1.1-6.5,4.8-4.7c5.9,1.8,15.2,2.8,15.2,2.8l-0.2,3.6c0,0-11,3.6-6.6,16.8
		c0,0,7.5-1.9,12.4-6.9c0,0,2.9-0.6,4.3,1.8c1.3,2.5,9.8,1,12.9-4.8c2.7-5.3,20.3,4.2,30.4,12.1c2.2,1.7,7.5,3.5,7.5,3.5
		s6.1,10.9,9.4,9.2c3.3-1.7,4.9-11.9,1.7-16.5c0,0,0.5-2.4,3.4-0.6c2.9,1.8,8.4,0.2,8.4,0.2l10,11c0,0,10.5-2.8,3.8-15.3
		c0,0,5.5-1.2,10,2.8c0,0,4,0.5,4-3.8c0-2-0.9-4-2.5-5.3c-1.7-1.5-4.6-3.7-8.5-5.2v-7.6c0,0,9.4-2.8,31,16.3c6,5.3,12.2,8.5,18,10.4
		c13.4,4.3,28.1,1.6,39.3-7c8.5-6.5,18.6-16.6,18.9-28c0,0,6.6,2.5,12-9c0,0,14.9-7.5-4.7-21.3c0,0-6.4-2.9-4.7-5.2
		c1.8-2.3,4.8-3.3,3.7-9.2c-1.1-5.9-0.1-13.3-14-14.8c0,0-3-2.1-9.2,1.4c0,0-10.7-4.8-11.5-4.8c-0.8,0-15.8-27-39.5-20.1
		c0,0,0.4-12.6-16.9-29.7c-3.9-3.9-8.3-7.2-12.9-10.1c-4.8-3-12.8-9.6-13.4-20.3c-0.2-2.8-0.4-5.6-0.7-8.4
		c-0.5-4.4-0.6-11.3,1.8-17.7c3.9-10.6-1.4-27.9-19.3-34.7c0,0,11.2-12.2,29.5-17.3c18.3-5.1,36.1-19,39.3-31.4
		c0,0,50-0.8,86.6-64.7c0,0-26.9-13.4-14-16.6s24.9-3.7,24.9-3.7s27.6-18.1,16.3-70.2c-3.1-14.5-8.7-28.3-16.2-41.1
		c-13.4-22.8-41.5-62.9-69.5-54.5C524.3,79.6,508.1,89.6,524.9,177.6z"/>
	<path class="st0" d="M316.5,276.9c0,0-12.9-29.9,18.9-44.3c21-9.5,41.1-4.3,52.4,0.3c10.7,4.3,17.9,14.5,18.2,26
		c0.1,5.4-1.2,11.6-5.4,18c0,0-1.5-7.2-2.8-7.8c-1.3-0.6-4.7-5.1-7,1.7s-10,37.9-27.3,32.8c-14.5-4.3-20.4-11.8-21.9-14.1
		c-0.2-0.3-0.4-0.7-0.6-1C339.7,285.9,330.4,268.7,316.5,276.9z"/>
	<path class="st1" d="M598.5,149.5c29.7,60.2-3.9,93.3-3.9,93.3c-16.7,1.8-27.9,3.6-30.8,8.7c-2.8,5.1,15.6,14.5,15.6,14.5
		c-6.7,23-54.6,38.2-54.6,38.2c20.5-36.8,8.8-97.5,8.8-97.5s-8.5-37.8-11.9-83.2c-3.4-45.5,8-43.8,8-43.8S563.2,78.2,598.5,149.5z"
		/>
	<path class="st1" d="M99.5,186.2c0,0-44.4,112.7,86.7,135.8c0,0-19.9-40.6-16.4-79.7c0.6-7.1,1.2-14.2,1.6-21.4l3.2-58.6
		c0,0,2.6-57.4-21.3-45.7s-38.6,40.1-38.6,40.1s23.9,21,12.5,27.6C115.7,190.7,99.5,186.2,99.5,186.2z"/>
	<path class="st2" d="M255.5,342.3c0,0,108-46.4,219.3-18.8c0,0,4,18.7-34.1,37.4c-27.7,13.6-43.9,26.1-50.8,32
		c-6.3,5.4-8.8,14.1-6.2,21.9c1,3,2.7,6.3,5.4,9.7c0,0-4.9,23.1-3.4,28.8c0,0-38.3,56-21.8,129.8c0,0-15.4,0-15.9,11.4
		c0,0-17.6-1.4-21.7-11.6l-9.2-0.8c0,0,28.8-59.8,6.8-115.1c0,0,3.6-26.1-4.5-49.8c0,0,13.6-19.5,8.9-27.7
		c-4.7-8.1-22.9-13.8-22.9-13.8S254.4,360.6,255.5,342.3z"/>
	<path class="st2" d="M426.8,191.9"/>
	<path class="st2" d="M430,193.2c0,0-25.6-2.7-22.5,52.9c0,0,6.9,17-1.5,28.9c0,0-1.7,21.1,39.7,29.2c22.3,4.3,33.9-9.5,38.7-22.9
		c4.4-12.3,3.6-25.9-2-37.7C473.4,224.6,453.8,194,430,193.2z"/>
	<g>
		<path d="M444.2,222.4c0.9,0,1.7,0,2.6,0c0.1,0.1,0.2,0.1,0.2,0.1c3.1,0.2,6,1.1,8.8,2.6c2.6,1.4,4.8,3.4,6.7,5.7
			c4.4,5.1,6.8,11.1,7.3,17.8c0,0.5,0,1,0.1,1.5c0,0.8,0,1.5,0,2.3c-0.1,0-0.1,0.1-0.1,0.2c0,1.5-0.2,3-0.4,4.4
			c-0.5,3.7-1.4,7.2-2.8,10.7c-1.5,3.7-3.6,7-6.5,9.7c-3.9,3.6-8.6,5.7-13.8,6.8c-4.1,0.8-8.3,0.9-12.5,0.5c-4-0.4-7.8-1.3-11.6-2.7
			c-2.3-0.8-4.5-1.9-6.5-3.3c-1.1-0.8-2.2-1.7-2.5-3.2c0-0.1,0-0.3,0-0.4c0.1-0.2,0.1-0.4,0.1-0.7c0.3-3.3,0.7-6.5,1.3-9.8
			c0.9-5.5,2.2-10.8,4.1-16.1c1.7-4.8,3.8-9.4,6.6-13.6c2.1-3.1,4.6-5.9,7.6-8.2c3-2.2,6.2-3.7,9.9-4.1
			C443.3,222.5,443.7,222.5,444.2,222.4z"/>
	</g>
	
		<ellipse transform="matrix(0.3765 -0.9264 0.9264 0.3765 47.9677 552.4955)" class="st3" cx="434.4" cy="240.6" rx="9.5" ry="7.1"/>
	<path class="st2" d="M308.6,256.6c0,0-1,16.4,6.3,22.8c0,0,5.5,22.5-25.4,34.1c0,0-21,14.3-41.2,5.4c-4.9-2.1-8.8-6-11-10.8
		c-2.3-5-4.9-13-5.5-24.3c-1-20,5-39.7,17-55.8c7.2-9.7,16.9-17.9,27.8-15.5C299.5,217.4,308.6,256.6,308.6,256.6z"/>
	<g>
		<path d="M270,244.1c0.9,0,1.8,0,2.8,0c0.1,0.1,0.2,0,0.2,0.1c4,0.3,7.7,1.4,11.1,3.5c4.1,2.5,7.7,5.5,10.9,8.9
			c3.1,3.3,5.7,7,7.8,11.1c3.4,6.7,5.1,13.9,5.5,21.4c0,0.1,0,0.2,0.1,0.3c0,0.1,0,0.1,0,0.2c0,0,0,0,0,0c-2.5,3.6-5.6,6.6-9.1,9.3
			c-3,2.2-6.2,3.9-9.8,4.9c-2.5,0.7-5,0.8-7.6,1.1c-0.5,0-1.1,0-1.7,0.1c-1.5,0-3,0-4.6,0c0-0.1-0.1,0-0.2-0.1c-0.7,0-1.3-0.1-2-0.1
			c-3.2-0.3-6.3-0.9-9.4-1.9c-4.5-1.6-8.3-4-11.5-7.6c-4.2-4.8-6.4-10.4-7.2-16.6c-0.1-0.5-0.1-1-0.2-1.5c0-0.7,0-1.4,0-2.1
			c0.1-0.1,0.1-0.1,0.1-0.2c0-0.8,0.1-1.7,0.2-2.5c0.3-3.2,0.9-6.3,1.9-9.3c1.5-4.7,3.9-9,7.6-12.4c3.8-3.5,8.3-5.6,13.5-6.3
			C268.9,244.2,269.4,244.2,270,244.1z"/>
	</g>
	<ellipse transform="matrix(0.7649 -0.6441 0.6441 0.7649 -100.2917 242.418)" class="st3" cx="282" cy="258.6" rx="7.3" ry="9"/>
	<path class="st4" d="M404.4,280.7c9.5,20.1,37.9,24.3,37.9,24.3c46.6,9.3,45-38.6,47-39c2-0.4,7.6,32.7,7.7,36.1
		c0.1,3.4,1.8,2.1,1.8,2.1c-1.5-22.9,27.3-118.6,27.3-118.6c28,109.1-19.5,133.9-19.5,133.9c7.4-1.7,16.7-13.6,16.7-13.6
		c13.9-2.5,35.3-14.7,35.3-14.7c1.3-0.7,1.3-0.2,1.1,0.3c-0.1,0.4-0.4,0.7-0.6,1c-38.1,38.4-61.3,34.5-61.3,34.5
		c1.3-2.6,1.8-10,1.8-10l-5,12.2c-10.4,19.6-40.6,30.7-48.7,34.2c-8.1,3.5-19.2,12.6-21.6,14c-2.4,1.4-5.9-1.4-5.9-1.4
		s30.8-17.8,43.9-27.4c13.2-9.6,15.3-25.5,15.3-25.5c3.2,1.2,7.5-0.1,11.1-0.3c3.6-0.1,0.2,5.5,0.2,5.5s4.6,0.3,3.7-6.8
		c-0.9-7.1-9.2-5.7-9.2-5.7c9.9,4.8,3.3,5.2-4.6,4.6c-6.4-0.5-12.7-1.5-18.9-3.1c-37.7-9.5-91.5-3.7-91.5-3.7V307
		C386.6,304.6,404.4,280.7,404.4,280.7z M422.5,307c0.8-0.4,0.9-0.9,0.5-1.7c-0.5-0.9-1.2-1.6-1.9-2.3c-2.4-2.3-5.1-4.2-7.9-6.1
		c-0.6-0.4-1.3-0.7-2-0.8c-0.1,0-0.1,0-0.1-0.1c-0.2,0-0.5,0-0.7,0c-0.3,0.1-0.6,0.2-0.7,0.5c0,0.1,0,0.2,0,0.3
		c0.2,0.6,0.6,1.1,1,1.5c1.5,1.5,3,2.9,4.6,4.3c2,1.7,4,3.5,6.5,4.3C422,307,422.3,307,422.5,307z"/>
	<path class="st4" d="M317.5,283.3c0,0,21.8,21.2,49,23.7v6.6c0,0-40,1.8-106.6,24.4c-3.4,1.1-6.9,2-10.5,2.4
		c-4.2,0.5-8.5,0.4-6.5-2.4l1.5-0.1c0,0-6.8-3.4-7.3,6.9c-0.1,1.1,0.1,2.3,0.5,3.3c0.5,1.2,1.4,2.6,3,2.5c0,0-0.1-2.8-0.4-4
		c-0.3-1.1-1.4-3.6,1.4-3c2.8,0.6,12.6-1,12.6-1s-0.7,18.3,29.9,26.5c0,0,44.5,14.9,43.6,26.7c-0.9,11.7-8,17.2-8,17.2
		s-1.1-3.7-1.6-1.9c-0.5,1.8-0.1,7.6-0.1,7.6s4.8,27.6,4.6,39.9c0,0-4.6-7.4-5.1-5.4s3.1,9.2,3.1,9.2s19.1,70.4-5.3,117.3
		c0,0-2.7-0.4-3.1-1.8c-0.4-1.4-1.4,7.8,12,7.7c1.5,0,2.8,0.9,3.3,2.3c0.6,1.8,0.7,4.8-0.9,9.9c0,0-8.3,0.2-7.5,8.1
		c0,0-6.8,3.6-14.1-2.9c0,0-11.5-2.7-22,2c-10.5,4.7-16.6,2.5-16.6,2.5s6.9-7.2,1.8-10.6c-5.1-3.4-9-0.6-9-0.6s0.1-11.6,9.2-13.5
		c1.7-0.3,3.4,0,4.8,1c1.1,0.7,2.3,2,3.6,3.9c0,0,1.6,0,0.6-1.5s-5.8-9-14-3.4c-8.2,5.7-7.3,11.5-7,14.5c0,0-3.9,1.6-4.3,0.2
		s0.2-8.3-9.9-5.5l-3.7,0.1c0,0-0.2-7.7,9.8-10.2s6.3-5.2,6.3-5.2s-6.1,5.1-11.6,4.5s-7.6,11.9-7.6,11.9s-12.7-1.3-9.8-8.9
		c2.1-5.6,7.6-5.9,10.4-5.7c2,0.2,4.1,0.1,6.1-0.3c3-0.6,6.8-1.8,8.4-4.2c0,0-8.5-23.9,0.3-55.1c0,0,9.8-42.5,29.8-71.4
		c2.8-4.1,4.7-8.8,5.1-13.8c0.2-2.3,0.1-4.5-0.8-5.6c0,0-11-19.8,4.3-41.3c2.8-3.9,7.8-5.4,12.2-3.6c0.1,0.1,0.2,0.1,0.4,0.2
		c6.1,2.7,18.2,8.1,18.7,7.1c0,0-11.2-11.5-31.2-13.6c-18.9-2.1-41.8-12.1-45.3-14c-0.4-0.2-0.7-0.4-1.1-0.6c-2.3-1.2-9.9-5.6-15-16
		c0,0-2-1.6-1.2,0.1c0.8,1.7,0.8,3.9,0.8,3.9s-56.9,2.7-109.4-54.8c0,0,41.9,29.7,70.1,27.7s0.9,0.8,0.9,0.8s9.3,12.1,14.2,12.9
		c0,0-37.3-21.3-29.6-118.1c0,0,2-2.8,3.7,4.6c1.7,7.4,28.2,62.9,28.2,62.9l16.3,37.9c0,0,0,5.9,1.1,5.5s0.8-14.7,0.8-14.7
		s1.5-37,6.1-40.2c0,0,1.1,34.7,9.9,42.4c9.7,8.5,21.8,7,21.8,7S316.4,320.3,317.5,283.3z M315,306.7c-0.1-0.3-0.2-0.5-0.5-0.6
		c-0.1,0-0.3,0-0.4,0c-0.4,0.2-0.8,0.5-1.1,0.8c-3.3,3.6-6.6,7.3-9.9,10.9c-0.4,0.4-0.7,0.8-0.9,1.4c0,0,0,0.1,0,0.1
		c0.2,0.4,0.4,0.5,0.8,0.4c0.5-0.1,1-0.3,1.4-0.6c1.4-0.8,2.6-1.9,3.7-3.1c1.8-1.8,3.5-3.7,5.1-5.7c0.7-0.8,1.4-1.6,1.6-2.7
		C315,307.2,315,306.9,315,306.7z"/>
	<path class="st4" d="M229.9,523.4l4.5,7h10.2c0,0,6.4-35.9,9.9-39.5c0,0-23-0.5-34.1,16.7c-0.5,0.8-0.5,1.9,0.1,2.6
		c0.2,0.3,0.5,0.4,0.8,0.4C222.5,510.6,230.8,516.7,229.9,523.4z"/>
	<path class="st4" d="M244.1,535.8c0,0-11-0.9-9,8c2,8.9,8.5,11.6,8.5,11.6l2.7,16.6c0,0,1.7,5.3-14.9,4.3c0,0-0.7-42.2-40.5-34.4
		c-0.4,0.1-0.8,0.2-1.1,0.3c-2.5,1.1-11.5,6.4-10.2,24.6c1.5,21.2,28.8,28,33.8,26.5c0,0-1.5,6.8-5,6.6c0,0-27.2,1.6-42.4-42.2v3.5
		c0,0-12.3-4.8-3.5-23.4c0.3-0.6,0.7-1.1,1.3-1.4c0.5-0.3,1.1-0.4,1.8-0.1c0.9,0.4,1.3,1.5,1,2.4c-0.6,2.2-1.8,6.9-1.6,7.8
		c0,0,1.5-8.1,4.4-8.7l0.1-1.6c0,0-4.9-0.4-3.9-8c0,0,14.6,2.6,16.7-13.3c0,0,3.2-0.9,3.7,0.4c0.4,1.3,0.9,3.2,0.9,3.2
		s4-3.2,8.3-2.9c1.4,0.1,2.5,1.3,2.4,2.7c-0.1,1.8,0,4.1,0.7,3.9c0,0,0.3,0,0.6-0.3c0.3-0.3,0.2-13.9,15.5-11.9
		c9,1.2,12.2,6.2,13.3,10c0.9,3,0.5,6.3-1.2,9c-0.4,0.6-0.8,1.2-1.3,1.6l0.9,0.3c0,0,3.2-4,5.6-1.9c2.3,2.1,0.8,4.5,0.8,4.5
		s-5.3,4.7-2.5,8.4c0,0,1.8-11.7,13.9-8.9L244.1,535.8z M216.4,512.2c-5.6-1.4-11,1-12.1,5.3c-1.1,4.3,2.6,9,8.2,10.4s11-1,12.1-5.3
		C225.6,518.2,221.9,513.5,216.4,512.2z"/>
	<path class="st4" d="M289.6,204.6c0,0,0.4,2.1,0.5-0.1c0.1-2.2-7.6-6.3-7.6-6.3c1.8-3.2,36.5-18.9,37.2-19.2c0.8-0.3,1.3-1.1,1-0.9
		c-0.3,0.3-12.6,3.3-12.6,3.3c6.8-3,12.3-19.6,13.4-19.7c1-0.1,1.5,7.9,1.5,7.9c6-2.2,16-19.5,16-19.5c5.9,1.3-1.8,15.9-1.8,15.9
		c11.1-4.1,21.2-3.6,21.6-3.2s-17.5,10-17.5,10c37.1-4.7,76.4,8.3,72.6,10.2c-3.8,1.9-5.4,6.8-5.4,6.8c14.9-12.6,24.2-0.6,24.2-0.6
		c-27.9-8.2-28.6,51.3-28.6,51.3c-14.4-17.2-39-16.4-39-16.4c-42.3-3.8-53,26.6-54,28.7c-1,2-2,0.7-2,0.7s-3.4-9.5-13.8-30.6
		c-10.4-21.1-29.9-15.7-29.9-15.7C279.3,196.1,289.6,204.6,289.6,204.6z M332.9,212.1c0,0,13.9-12,31.3-7.3
		C364.2,204.8,349.2,194.1,332.9,212.1z M332.9,220.8c22.9-13.3,38.7-6.7,42.4-5.2s2.9-0.9,2.9-0.9c-21.8-13.4-48.3,5.8-48.3,5.8
		L332.9,220.8z"/>
	<path class="st4" d="M436.4,585.4c0,0-2.4-1.1-1.6-2.2c0,0,0,0,0,0c1.2,0.3,2.5,0.4,3-0.7c0.8-1.5,4-9.5,6.3-15.1
		c0.8-1.9,1.6-3.7,2.2-5.6c0,0,0,0,0,0l0,0c11.9-33-1.3-64-1.3-64l-8.2-33.2c-3-7.6-3.3-25.3-2.6-28.8c0.8-3.5,2.7,1.4,2.7,1.4
		s9.2-21.8,6.7-36.7c-2-12.2-16.7-19-22-21.2c-0.1,0-0.1,0-0.2-0.1c-1.4-0.6-3.7-1.2-5.1-1.6c-0.9-0.3-1.9-0.2-2.8,0.3l-8,4.6l0,0
		c-6.3,3.7-12.1,8.9-15.2,12c-2.6,2.6-4.5,5.8-5.4,9.4c-2.5,10.5,5.5,16.4,5.5,16.4s-0.9-4.8,0.9-10.5c1.7-5.7,1.5,10.8,0.9,13.6
		c-0.7,2.8-2.7,21.6-2.7,21.6c5.4-8.8,5.9-4.9,5.9-4.9S380.2,463,370,499.8c-10.2,36.8-5.2,75.2-5.2,75.2c0.2,6.9,3.3,7.8,4.5,7.9
		c0.4,0,0.8,0.4,0.8,0.9c-0.2,2-7.9,1.7-7.9,1.7s-10.7-1.4-10.5,6.8c0,0-0.5,5.8,1.1,5.6s15.4,0.9,5.6,10c0,0,1.6,3.8,8,1.9
		c0,0,7-17.2,33.4,4.7l6.3,5.4c0,0,0.4-3.5-2.1-6.1c-2.5-2.5,0.9-14,13.8-3.2c0,0,5.8,2,1.4-6.7c0,0-2.9-4.1-13.1-9.5
		c0,0-1.5-2.9,3.9,0c5.4,2.9,11.5,5.2,11.5,9.4s0.5,11.1,6.6,8.8c0,0-10.1-10.7,2.3-11.7c0,0,4.2,0,6.8,1.7s5.2,1.2,3.4-3.2
		c-1.8-4.4-3.2-9.4-15.2-5c0,0-3.7,0.3-5.4-3.6c0,0,7.7,2.1,12.4,0c4.7-2.1,11,4.8,11.4,6.7c0.4,1.9,6.4,0.6,3.3-3.7
		C443.8,589.6,436.4,585.4,436.4,585.4z"/>
	<path class="st4" d="M443.2,436.9c0.6,18.5,8,22.3,8,22.3c32.6,22.4,35.5,41.2,35.5,41.2c-12.3,0.2-20.4,8.1-20.4,8.1
		c37.8-14.8,51.5,4.5,51.5,4.5c-15.5,1-16.2,13.3-16.2,13.3l-4.5,3.9c-5.2-1.5-14.7-1-21.8,11.4c-7.1,12.4,0.3,18.4,0.3,18.4
		c-6.6,13.8-1.7,16.8-1.7,16.8c0.6-10,6.9-15.2,6.9-15.2c-0.6-0.1-1.2-0.4-1.7-0.7c-1.6-1-2.7-2.7-3.2-4.5
		c-3.5-13.3,4.9-20,12.2-23.5c7.7-3.7,10.7,3.6,10.7,6.3c0,2.7,1.1,3.8,1.6,3.6s0.4-4.7-0.9-9.4c-1.3-4.6,3.8-1.7,4.5-1.5
		c0.7,0.2,1-0.6,1-0.6c-3.5-2.8-1.1-7.1-1.1-7.1c14.8,4.1,20.9-3.4,20.9-3.4c3.6,1.4-0.5,9.3,0,9.3c0.5,0,3.1-4.5,3.7-6.5
		c0.6-2,10.4,2.9,10.4,2.9c-0.7,4.8,1.1,5.8,1.1,5.8c-0.5-9,6.7-6.7,6.7-6.7c-0.1,0.3-0.4,1.1-0.4,1.4c-0.4,5.3,2.7,10.4,7.6,12.4
		c3.4,1.4,6.8,1,6.8,1c2.4,6-4.5,6.7-4.5,6.7s3.2,7.5,3.6,8.6s1,1.6,1,1.6c0.4-2.8,1.8-2.1,3.2-0.7c1.8,1.9,2.9,4.4,3,7
		c0.8,13.3-7.9,17-7.9,17s-0.6-2.5-0.1-5.3c0.5-2.8-1.1-0.8-1.1-0.8c-5.4,36.2-41.4,42.7-41.4,42.7c-9.9,2-30.5-6.6-40.6-17.2
		c-10.1-10.6-27.1-10.1-27.1-10.1l-10.2-5.7l1.2-2.4c2.9-5.8,6.3-11.3,9.8-16.7c9.4-14.3,6.2-35.3,6.2-35.3
		c1.7-9.4-7.5-39.4-10.8-49.7c-0.5-1.7-1.2-3.4-2-5c-3.5-7.5-7.1-31.3-7.1-31.3l5.3-8.3C443.1,434.3,443.2,436.9,443.2,436.9z
		 M499.2,566.6c-9,14.2-7.4,31.3,3.5,38.1c10.9,6.9,27,0.9,35.9-13.2c9-14.2,7.4-31.3-3.5-38.1C524.3,546.5,508.2,552.5,499.2,566.6
		z M491,536.3c-3.2-1.9-8.3,0.8-11.3,6c-3,5.2-2.8,11,0.4,12.8c3.2,1.9,8.3-0.8,11.3-6C494.4,543.9,494.2,538.1,491,536.3z"/>
	<path class="st5" d="M352.9,600c-3.5,1.5-10.7,5.7-8.3,14.1c0,0,12.7-7.2,13.2-7.8c0.4-0.5,3.3-4.7-0.6-6.4
		C355.8,599.4,354.2,599.4,352.9,600z"/>
	<path class="st5" d="M416,612.6c-1.7-2-4.2-3.2-6.8-3.2c-2.2,0-4.1,0.8-1.9,4.4c4.1,6.7,9.8,14.1,9.8,14.1S424.4,622.3,416,612.6z"
		/>
	<path class="st5" d="M433.1,604c0,0-5.4,0-4.5,3.9c0.9,3.9,7.3,5.8,13.4,13.2C448,628.5,447.5,603.6,433.1,604z"/>
	<path class="st5" d="M449.6,601.5c-1.1-0.3-2.3-0.4-3.4,0.1c-1.3,0.5-2.3,1.4-1.4,3.4c1.9,4,11.8,5.5,11.8,5.5
		S457.8,604,449.6,601.5z"/>
	<path class="st5" d="M324.1,600.4c-1.7,0.5-3.1,1.6-2.1,3.9c0.4,0.9,1.1,1.7,1.9,2.3l11.4,8.6c0,0,5.6-7.6-5.3-14
		C328.2,600.1,326.1,599.8,324.1,600.4z"/>
	<path class="st5" d="M260.3,597.8c-5,1.9-16.5,7.2-14.7,15.7l16.6-7.7c1.3-0.6,2.4-1.3,3.4-2.3c1.5-1.5,2.9-3.7,0.1-5.3
		C264,597.2,262.1,597.1,260.3,597.8z"/>
	<path class="st5" d="M249.3,598.2c0,0-16,15.2-21.3,11C222.7,605,241.8,583.6,249.3,598.2z"/>
	<path class="st5" d="M228.1,592.4c-2.5-0.7-5.2-0.5-7.6,0.6c-3.6,1.7-9,4.7-7,7c3,3.5,9.8-5.4,17.4-4.1
		C230.9,595.9,232.1,593.5,228.1,592.4z"/>
	
		<ellipse transform="matrix(0.3973 -0.9177 0.9177 0.3973 -207.9685 774.4335)" class="st5" cx="485.6" cy="545.6" rx="7.1" ry="4.2"/>
	
		<ellipse transform="matrix(0.7355 -0.6776 0.6776 0.7355 -213.681 516.4333)" class="st5" cx="554.5" cy="531.9" rx="4.2" ry="7.1"/>
	
		<ellipse transform="matrix(0.9828 -0.1846 0.1846 0.9828 -87.0146 103.9226)" class="st5" cx="514.5" cy="519.2" rx="7.1" ry="3.6"/>
	<path class="st0" d="M501.8,568.7c-8.1,12.9-7,28.1,2.5,34.2c9.5,6,23.8,0.5,31.9-12.4c8.1-12.9,7-28.1-2.5-34.2
		C524.2,550.3,509.9,555.8,501.8,568.7z M513.8,596.8c13.4-19.2,10.4-23.4,10.4-23.4C532.8,576.6,513.8,596.8,513.8,596.8z"/>
	<path class="st0" d="M229.1,577.3c-5.9-0.3-6.2,11.6-6.2,11.6c-2.7,0.4-4.4,3-4.4,3c-7.1,0-26.4,0.7-35.6-19.5
		c-3.8-8.3-3-14.8-0.7-19.6c3.3-7,10.7-11,18.4-10.3C231.3,545.4,229.1,577.3,229.1,577.3z M198.1,561.3c0.2,3.2,1.7,19.7,11.7,23.8
		c0,0-8.6-9.8-9.4-22.3c0-0.5-0.1-1.1-0.3-1.6c-0.3-0.7-0.7-1.5-1.4-1C198.3,560.4,198.1,560.9,198.1,561.3z"/>
	
		<ellipse transform="matrix(0.3596 -0.9331 0.9331 0.3596 -347.3482 533.2833)" class="st5" cx="214.8" cy="519.7" rx="5.4" ry="7.7"/>
	<ellipse transform="matrix(0.8264 -0.5631 0.5631 0.8264 -262.9975 188.303)" class="st5" cx="173.9" cy="520.6" rx="7" ry="2.8"/>
	
		<ellipse transform="matrix(6.782478e-02 -0.9977 0.9977 6.782478e-02 -399.5195 666.1377)" class="st5" cx="156.7" cy="546.9" rx="5.5" ry="2.2"/>
	
		<ellipse transform="matrix(0.9792 -0.2031 0.2031 0.9792 -105.4226 60.3291)" class="st5" cx="241.3" cy="543.9" rx="2.7" ry="6.4"/>
	<ellipse class="st5" cx="570.6" cy="565.4" rx="1.8" ry="5.1"/>
</g>
</svg>
